<svg width="273" height="273" viewBox="0 0 273 273" fill="none" xmlns="http://www.w3.org/2000/svg">
<path d="M85.3125 255.938C94.7359 255.938 102.375 248.298 102.375 238.875C102.375 229.452 94.7359 221.812 85.3125 221.812C75.8891 221.812 68.25 229.452 68.25 238.875C68.25 248.298 75.8891 255.938 85.3125 255.938Z" fill="#8CD035"/>
<path d="M204.75 255.938C214.173 255.938 221.812 248.298 221.812 238.875C221.812 229.452 214.173 221.812 204.75 221.812C195.327 221.812 187.688 229.452 187.688 238.875C187.688 248.298 195.327 255.938 204.75 255.938Z" fill="#8CD035"/>
<path d="M42.4856 23.9216C42.0992 21.9884 41.0551 20.2486 39.5309 18.9981C38.0067 17.7477 36.0965 17.0637 34.125 17.0625H0V34.125H27.1294L59.8894 197.891C60.2758 199.824 61.3199 201.564 62.8441 202.814C64.3682 204.065 66.2785 204.749 68.25 204.75H221.812V187.688H75.2456L68.4206 153.562H221.812C223.753 153.562 225.636 152.9 227.15 151.686C228.663 150.471 229.718 148.777 230.139 146.883L249.488 59.7188H232.024L214.97 136.5H65.0081L42.4856 23.9216Z" fill="#8CD035"/>
<path d="M140.766 121.037C127.897 121.037 115.555 115.925 106.456 106.825C97.3562 97.726 92.2441 85.3843 92.2441 72.5156C92.2441 59.6469 97.3562 47.3053 106.456 38.2058C115.555 29.1062 127.897 23.9941 140.766 23.9941C153.634 23.9941 165.976 29.1062 175.075 38.2058C184.175 47.3053 189.287 59.6469 189.287 72.5156C189.287 85.3843 184.175 97.726 175.075 106.825C165.976 115.925 153.634 121.037 140.766 121.037ZM140.766 127.969C155.473 127.969 169.577 122.126 179.977 111.727C190.376 101.327 196.219 87.2227 196.219 72.5156C196.219 57.8085 190.376 43.7038 179.977 33.3043C169.577 22.9049 155.473 17.0625 140.766 17.0625C126.059 17.0625 111.954 22.9049 101.554 33.3043C91.1549 43.7038 85.3125 57.8085 85.3125 72.5156C85.3125 87.2227 91.1549 101.327 101.554 111.727C111.954 122.126 126.059 127.969 140.766 127.969Z" fill="#8CD035"/>
<path d="M110.906 90.2891C110.906 91.2318 111.299 92.136 111.999 92.8026C112.699 93.4692 113.649 93.8438 114.639 93.8438H166.893C167.882 93.8438 168.832 93.4692 169.532 92.8026C170.232 92.136 170.625 91.2318 170.625 90.2891C170.625 89.3463 170.232 88.4422 169.532 87.7755C168.832 87.1089 167.882 86.7344 166.893 86.7344H114.639C113.649 86.7344 112.699 87.1089 111.999 87.7755C111.299 88.4422 110.906 89.3463 110.906 90.2891ZM133.301 61.8516C133.301 55.965 129.957 51.1875 125.836 51.1875C121.715 51.1875 118.371 55.965 118.371 61.8516C118.371 67.7381 121.715 72.5156 125.836 72.5156C129.957 72.5156 133.301 67.7381 133.301 61.8516ZM163.16 61.8516C163.16 55.965 159.816 51.1875 155.695 51.1875C151.575 51.1875 148.23 55.965 148.23 61.8516C148.23 67.7381 151.575 72.5156 155.695 72.5156C159.816 72.5156 163.16 67.7381 163.16 61.8516Z" fill="#8CD035"/>
</svg>
