<svg width="24" height="24" viewBox="0 0 24 24" fill="none" xmlns="http://www.w3.org/2000/svg">
<path d="M21.0001 8.99991H19.5801L15.8681 2.50391L14.1321 3.49591L17.2771 8.99991H6.72314L9.86914 3.49591L8.13214 2.50391L4.42014 8.99991H3.00014C2.84644 9.00008 2.69484 9.03564 2.55709 9.10384C2.41935 9.17204 2.29916 9.27104 2.20584 9.39318C2.11253 9.51531 2.04859 9.65729 2.01898 9.80812C1.98938 9.95894 1.99491 10.1146 2.03514 10.2629L4.83414 20.5269C4.95049 20.9497 5.20225 21.3227 5.55084 21.5887C5.89943 21.8548 6.32563 21.9992 6.76414 21.9999H17.2371C18.1351 21.9999 18.9291 21.3949 19.1671 20.5249L21.9661 10.2619C22.0068 10.1135 22.0127 9.95771 21.9832 9.80668C21.9537 9.65565 21.8897 9.51348 21.7962 9.39129C21.7026 9.2691 21.5821 9.17019 21.444 9.1023C21.3059 9.0344 21.154 8.99936 21.0001 8.99991ZM17.2361 19.9999V20.9999V19.9999H6.76414L4.31014 10.9999H19.6901L17.2361 19.9999Z" fill="#8CD035"/>
<path d="M9.00012 13H11.0001V18H9.00012V13ZM13.0001 13H15.0001V18H13.0001V13Z" fill="#8CD035"/>
</svg>
